<svg xmlns="http://www.w3.org/2000/svg" version="1.1" xmlns:xlink="http://www.w3.org/1999/xlink" xmlns:svgjs="http://svgjs.com/svgjs" width="1433" height="398" preserveAspectRatio="none" viewBox="0 0 1433 398"><g mask="url(&quot;#SvgjsMask1591&quot;)" fill="none"><path d="M848.67 324.55 a72.13 72.13 0 1 0 144.26 0 a72.13 72.13 0 1 0 -144.26 0z" fill="rgba(27, 239, 113, 0.41)" class="triangle-float1"></path><path d="M374.76 248.61 a124.9 124.9 0 1 0 249.8 0 a124.9 124.9 0 1 0 -249.8 0z" fill="rgba(27, 239, 113, 0.41)" class="triangle-float1"></path><path d="M1206.69 137.35 a118.47 118.47 0 1 0 236.94 0 a118.47 118.47 0 1 0 -236.94 0z" fill="rgba(27, 239, 113, 0.41)" class="triangle-float3"></path><path d="M1326.3 133.07 a76.59 76.59 0 1 0 153.18 0 a76.59 76.59 0 1 0 -153.18 0z" fill="rgba(27, 239, 113, 0.41)" class="triangle-float2"></path><path d="M648.69 293.88 a69.03 69.03 0 1 0 138.06 0 a69.03 69.03 0 1 0 -138.06 0z" fill="rgba(27, 239, 113, 0.41)" class="triangle-float1"></path></g><defs><mask id="SvgjsMask1591"><rect width="1433" height="398" fill="#ffffff"></rect></mask></defs></svg>